<?xml version="1.0" encoding="utf-8"?>
<svg version="1.1" xmlns="http://www.w3.org/2000/svg" xmlns:xlink="http://www.w3.org/1999/xlink" x="0px" y="0px"
	 viewBox="0 0 100 100" style="enable-background:new 0 0 866.69 326.69;" xml:space="preserve">

<filter id="sideShading">
  <!-- 
    light_color = #ffffff
    ambient_strength = 0.5
    ambient_light = light_color * ambient_strength
    
    light_angle = -pi/2 # -90 degrees
    side_angle = math.radians(10)
    
    # 2D cross product
    light_fraction = max(
      cos(side_angle) * cos(-light_angle)
      + sin(side_angle) * sin(-light_angle),
      0.0
    ) = 0.1736481776669304
    
    diffuse_light = light_color * light_fraction
    result = (diffuse_light + ambient_light) * surface_color
  -->
  <!-- diffuse_light + ambient_light -->
  <feFlood flood-color="#d5d5d5" result="light" />
  
  <feBlend in="light" in2="SourceGraphic" mode="multiply" result="shaded" />
  <feComposite in="shaded" in2="SourceGraphic" operator="atop"/>
</filter>

<!-- Keycap top surfaces -->
<symbol  id="1u-top" viewBox="-50 -50 100 100" preserveAspectRatio="none">
  <path class="surface" style="fill:inherit;" d="M 50 -40 C 50 -45.5 45.5 -50 40 -50 L -40 -50 C -45.5 -50 -50 -45.5 -50 -40 L -50 40 C -50 45.5 -45.5 50 -40 50 L 40 50 C 45.5 50 50 45.5 50 40 L 50 -40 Z"/>
</symbol>
<symbol id="1.25u-top" viewBox="-68.75 -50 137.5 100" preserveAspectRatio="none">
  <path class="surface" style="fill:inherit;" d="M68.75-40c0-5.5-4.5-10-10-10h-117.5c-5.5,0-10,4.5-10,10v80c0,5.5,4.5,10,10,10h117.5   c5.5,0,10-4.5,10-10V-40z" />
</symbol>
<symbol id="1.5u-top" viewBox="-87.5 -50 175 100" preserveAspectRatio="none">
  <path class="surface" style="fill:inherit;" d="M87.5-40c0-5.5-4.5-10-10-10h-155c-5.5,0-10,4.5-10,10v80c0,5.5,4.5,10,10,10h155   c5.5,0,10-4.5,10-10V-40z" />
</symbol>
<symbol id="0.75u-top" viewBox="-31.25 -50 62.5 100" preserveAspectRatio="none">
  <path class="surface" style="fill:inherit;" d="M106.25-40c0-5.5-4.5-10-10-10h-192.5c-5.5,0-10,4.5-10,10v80c0,5.5,4.5,10,10,10h192.5   c5.5,0,10-4.5,10-10V-40z" />
</symbol>
<symbol id="2u-top" viewBox="-125 -50 250 100" preserveAspectRatio="none">
  <path class="surface" style="fill:inherit;" d="M125-40c0-5.5-4.5-10-10-10h-230c-5.5,0-10,4.5-10,10v80c0,5.5,4.5,10,10,10h230   c5.5,0,10-4.5,10-10V-40z" />
</symbol>
<symbol id="2.25u-top" viewBox="-143.75 -50 287.5 100" preserveAspectRatio="none">
  <path class="surface" style="fill:inherit;" d="M143.75-40c0-5.5-4.5-10-10-10h-267.5c-5.5,0-10,4.5-10,10v80c0,5.5,4.5,10,10,10h267.5   c5.5,0,10-4.5,10-10V-40z" />
</symbol>
<symbol id="2.75u-top" viewBox="-181.25 -50 362.5 100" preserveAspectRatio="none">
  <path class="surface" style="fill:inherit;" d="M181.25-40c0-5.5-4.5-10-10-10h-342.5c-5.5,0-10,4.5-10,10v80c0,5.5,4.5,10,10,10h342.5   c5.5,0,10-4.5,10-10V-40z" />
</symbol>
</svg>
